<mxfile host="app.diagrams.net" modified="2024-02-27T16:27:34.864Z" agent="Mozilla/5.0 (Windows NT 10.0; Win64; x64) AppleWebKit/537.36 (KHTML, like Gecko) Chrome/121.0.0.0 Safari/537.36" etag="W6kI-YdSs6I9uWoh9lzB" version="23.1.7" type="google">
  <diagram name="Page-1" id="2YBvvXClWsGukQMizWep">
    <mxGraphModel grid="1" page="1" gridSize="10" guides="1" tooltips="1" connect="1" arrows="1" fold="1" pageScale="1" pageWidth="850" pageHeight="1100" math="0" shadow="0">
      <root>
        <mxCell id="0" />
        <mxCell id="1" parent="0" />
        <mxCell id="aM9ryv3xv72pqoxQDRHE-3" value="solicitarRegistro()" style="html=1;verticalAlign=bottom;startArrow=oval;endArrow=block;startSize=8;edgeStyle=elbowEdgeStyle;elbow=vertical;curved=0;rounded=0;" edge="1" parent="1" target="H8AewnWsdawKGz8qPp7k-37">
          <mxGeometry relative="1" as="geometry">
            <mxPoint x="49.5" y="120" as="sourcePoint" />
            <mxPoint x="230" y="120" as="targetPoint" />
          </mxGeometry>
        </mxCell>
        <mxCell id="H8AewnWsdawKGz8qPp7k-7" value="" style="shape=umlLifeline;perimeter=lifelinePerimeter;whiteSpace=wrap;html=1;container=1;dropTarget=0;collapsible=0;recursiveResize=0;outlineConnect=0;portConstraint=eastwest;newEdgeStyle={&quot;curved&quot;:0,&quot;rounded&quot;:0};participant=umlActor;size=30;labelPosition=center;verticalLabelPosition=middle;align=center;verticalAlign=middle;" vertex="1" parent="1">
          <mxGeometry x="40" y="40" width="20" height="440" as="geometry" />
        </mxCell>
        <mxCell id="H8AewnWsdawKGz8qPp7k-8" value="" style="html=1;points=[[0,0,0,0,5],[0,1,0,0,-5],[1,0,0,0,5],[1,1,0,0,-5]];perimeter=orthogonalPerimeter;outlineConnect=0;targetShapes=umlLifeline;portConstraint=eastwest;newEdgeStyle={&quot;curved&quot;:0,&quot;rounded&quot;:0};" vertex="1" parent="H8AewnWsdawKGz8qPp7k-7">
          <mxGeometry x="5" y="60" width="10" height="370" as="geometry" />
        </mxCell>
        <mxCell id="H8AewnWsdawKGz8qPp7k-23" value="" style="shape=umlLifeline;perimeter=lifelinePerimeter;whiteSpace=wrap;html=1;container=1;dropTarget=0;collapsible=0;recursiveResize=0;outlineConnect=0;portConstraint=eastwest;newEdgeStyle={&quot;curved&quot;:0,&quot;rounded&quot;:0};participant=umlBoundary;size=40;" vertex="1" parent="1">
          <mxGeometry x="150" y="40" width="50" height="440" as="geometry" />
        </mxCell>
        <mxCell id="H8AewnWsdawKGz8qPp7k-37" value="" style="html=1;points=[[0,0,0,0,5],[0,1,0,0,-5],[1,0,0,0,5],[1,1,0,0,-5]];perimeter=orthogonalPerimeter;outlineConnect=0;targetShapes=umlLifeline;portConstraint=eastwest;newEdgeStyle={&quot;curved&quot;:0,&quot;rounded&quot;:0};" vertex="1" parent="H8AewnWsdawKGz8qPp7k-23">
          <mxGeometry x="20" y="80" width="10" height="330" as="geometry" />
        </mxCell>
        <mxCell id="H8AewnWsdawKGz8qPp7k-24" value="Usuario" style="text;strokeColor=none;align=center;fillColor=none;html=1;verticalAlign=middle;whiteSpace=wrap;rounded=0;" vertex="1" parent="1">
          <mxGeometry x="20" y="10" width="60" height="30" as="geometry" />
        </mxCell>
        <mxCell id="H8AewnWsdawKGz8qPp7k-25" value="Interfaz" style="text;strokeColor=none;align=center;fillColor=none;html=1;verticalAlign=middle;whiteSpace=wrap;rounded=0;" vertex="1" parent="1">
          <mxGeometry x="145" y="10" width="60" height="30" as="geometry" />
        </mxCell>
        <mxCell id="H8AewnWsdawKGz8qPp7k-26" value="" style="shape=umlLifeline;perimeter=lifelinePerimeter;whiteSpace=wrap;html=1;container=1;dropTarget=0;collapsible=0;recursiveResize=0;outlineConnect=0;portConstraint=eastwest;newEdgeStyle={&quot;curved&quot;:0,&quot;rounded&quot;:0};participant=umlControl;" vertex="1" parent="1">
          <mxGeometry x="290" y="40" width="40" height="440" as="geometry" />
        </mxCell>
        <mxCell id="H8AewnWsdawKGz8qPp7k-40" value="" style="html=1;points=[[0,0,0,0,5],[0,1,0,0,-5],[1,0,0,0,5],[1,1,0,0,-5]];perimeter=orthogonalPerimeter;outlineConnect=0;targetShapes=umlLifeline;portConstraint=eastwest;newEdgeStyle={&quot;curved&quot;:0,&quot;rounded&quot;:0};" vertex="1" parent="H8AewnWsdawKGz8qPp7k-26">
          <mxGeometry x="15" y="90" width="10" height="320" as="geometry" />
        </mxCell>
        <mxCell id="H8AewnWsdawKGz8qPp7k-41" value="validarEmail()" style="html=1;verticalAlign=bottom;endArrow=block;curved=0;rounded=0;" edge="1" parent="H8AewnWsdawKGz8qPp7k-26" source="H8AewnWsdawKGz8qPp7k-40" target="H8AewnWsdawKGz8qPp7k-40">
          <mxGeometry x="0.0901" y="40" width="80" relative="1" as="geometry">
            <mxPoint x="30" y="100" as="sourcePoint" />
            <mxPoint x="30" y="130" as="targetPoint" />
            <Array as="points">
              <mxPoint x="60" y="100" />
              <mxPoint x="60" y="130" />
            </Array>
            <mxPoint as="offset" />
          </mxGeometry>
        </mxCell>
        <mxCell id="H8AewnWsdawKGz8qPp7k-48" value="generarToken()" style="html=1;verticalAlign=bottom;endArrow=block;curved=0;rounded=0;" edge="1" parent="H8AewnWsdawKGz8qPp7k-26" source="H8AewnWsdawKGz8qPp7k-40" target="H8AewnWsdawKGz8qPp7k-40">
          <mxGeometry x="0.1818" y="-40" width="80" relative="1" as="geometry">
            <mxPoint x="30" y="230" as="sourcePoint" />
            <mxPoint x="30" y="250" as="targetPoint" />
            <Array as="points">
              <mxPoint x="75" y="230" />
              <mxPoint x="75" y="250" />
              <mxPoint x="55" y="250" />
            </Array>
            <mxPoint x="40" y="40" as="offset" />
          </mxGeometry>
        </mxCell>
        <mxCell id="H8AewnWsdawKGz8qPp7k-27" value="GestorCreacionUsuarios" style="text;strokeColor=none;align=center;fillColor=none;html=1;verticalAlign=middle;whiteSpace=wrap;rounded=0;" vertex="1" parent="1">
          <mxGeometry x="290" y="10" width="60" height="30" as="geometry" />
        </mxCell>
        <mxCell id="H8AewnWsdawKGz8qPp7k-28" value="" style="shape=umlLifeline;perimeter=lifelinePerimeter;whiteSpace=wrap;html=1;container=1;dropTarget=0;collapsible=0;recursiveResize=0;outlineConnect=0;portConstraint=eastwest;newEdgeStyle={&quot;curved&quot;:0,&quot;rounded&quot;:0};participant=umlEntity;" vertex="1" parent="1">
          <mxGeometry x="460" y="40" width="40" height="440" as="geometry" />
        </mxCell>
        <mxCell id="H8AewnWsdawKGz8qPp7k-50" value="" style="html=1;points=[[0,0,0,0,5],[0,1,0,0,-5],[1,0,0,0,5],[1,1,0,0,-5]];perimeter=orthogonalPerimeter;outlineConnect=0;targetShapes=umlLifeline;portConstraint=eastwest;newEdgeStyle={&quot;curved&quot;:0,&quot;rounded&quot;:0};" vertex="1" parent="H8AewnWsdawKGz8qPp7k-28">
          <mxGeometry x="15" y="260" width="10" height="80" as="geometry" />
        </mxCell>
        <mxCell id="H8AewnWsdawKGz8qPp7k-29" value=":Registro" style="text;strokeColor=none;align=center;fillColor=none;html=1;verticalAlign=middle;whiteSpace=wrap;rounded=0;" vertex="1" parent="1">
          <mxGeometry x="450" y="10" width="60" height="30" as="geometry" />
        </mxCell>
        <mxCell id="H8AewnWsdawKGz8qPp7k-30" value="" style="shape=umlLifeline;perimeter=lifelinePerimeter;whiteSpace=wrap;html=1;container=1;dropTarget=0;collapsible=0;recursiveResize=0;outlineConnect=0;portConstraint=eastwest;newEdgeStyle={&quot;curved&quot;:0,&quot;rounded&quot;:0};participant=umlEntity;" vertex="1" parent="1">
          <mxGeometry x="540" y="40" width="40" height="440" as="geometry" />
        </mxCell>
        <mxCell id="H8AewnWsdawKGz8qPp7k-45" value="" style="html=1;points=[[0,0,0,0,5],[0,1,0,0,-5],[1,0,0,0,5],[1,1,0,0,-5]];perimeter=orthogonalPerimeter;outlineConnect=0;targetShapes=umlLifeline;portConstraint=eastwest;newEdgeStyle={&quot;curved&quot;:0,&quot;rounded&quot;:0};" vertex="1" parent="H8AewnWsdawKGz8qPp7k-30">
          <mxGeometry x="15" y="150" width="10" height="50" as="geometry" />
        </mxCell>
        <mxCell id="H8AewnWsdawKGz8qPp7k-54" value="" style="html=1;points=[[0,0,0,0,5],[0,1,0,0,-5],[1,0,0,0,5],[1,1,0,0,-5]];perimeter=orthogonalPerimeter;outlineConnect=0;targetShapes=umlLifeline;portConstraint=eastwest;newEdgeStyle={&quot;curved&quot;:0,&quot;rounded&quot;:0};" vertex="1" parent="H8AewnWsdawKGz8qPp7k-30">
          <mxGeometry x="15" y="270" width="10" height="40" as="geometry" />
        </mxCell>
        <mxCell id="H8AewnWsdawKGz8qPp7k-31" value=":User" style="text;strokeColor=none;align=center;fillColor=none;html=1;verticalAlign=middle;whiteSpace=wrap;rounded=0;" vertex="1" parent="1">
          <mxGeometry x="530" y="10" width="60" height="30" as="geometry" />
        </mxCell>
        <mxCell id="H8AewnWsdawKGz8qPp7k-32" value="" style="shape=umlLifeline;perimeter=lifelinePerimeter;whiteSpace=wrap;html=1;container=1;dropTarget=0;collapsible=0;recursiveResize=0;outlineConnect=0;portConstraint=eastwest;newEdgeStyle={&quot;curved&quot;:0,&quot;rounded&quot;:0};participant=umlEntity;" vertex="1" parent="1">
          <mxGeometry x="630" y="40" width="40" height="440" as="geometry" />
        </mxCell>
        <mxCell id="H8AewnWsdawKGz8qPp7k-55" value="" style="html=1;points=[[0,0,0,0,5],[0,1,0,0,-5],[1,0,0,0,5],[1,1,0,0,-5]];perimeter=orthogonalPerimeter;outlineConnect=0;targetShapes=umlLifeline;portConstraint=eastwest;newEdgeStyle={&quot;curved&quot;:0,&quot;rounded&quot;:0};" vertex="1" parent="H8AewnWsdawKGz8qPp7k-32">
          <mxGeometry x="15" y="280" width="10" height="20" as="geometry" />
        </mxCell>
        <mxCell id="H8AewnWsdawKGz8qPp7k-33" value=":Phone" style="text;strokeColor=none;align=center;fillColor=none;html=1;verticalAlign=middle;whiteSpace=wrap;rounded=0;" vertex="1" parent="1">
          <mxGeometry x="620" y="10" width="60" height="30" as="geometry" />
        </mxCell>
        <mxCell id="H8AewnWsdawKGz8qPp7k-39" value="registrarUser()" style="html=1;verticalAlign=bottom;endArrow=block;curved=0;rounded=0;" edge="1" parent="1" source="H8AewnWsdawKGz8qPp7k-37" target="H8AewnWsdawKGz8qPp7k-40">
          <mxGeometry width="80" relative="1" as="geometry">
            <mxPoint x="200" y="130" as="sourcePoint" />
            <mxPoint x="280" y="130" as="targetPoint" />
            <Array as="points">
              <mxPoint x="230" y="130" />
            </Array>
          </mxGeometry>
        </mxCell>
        <mxCell id="H8AewnWsdawKGz8qPp7k-43" value="loop" style="shape=umlFrame;whiteSpace=wrap;html=1;pointerEvents=0;" vertex="1" parent="1">
          <mxGeometry x="240" y="180" width="400" height="70" as="geometry" />
        </mxCell>
        <mxCell id="H8AewnWsdawKGz8qPp7k-44" value="validarEmailUnico()" style="html=1;verticalAlign=bottom;endArrow=block;curved=0;rounded=0;" edge="1" parent="1">
          <mxGeometry x="-0.2083" y="5" width="80" relative="1" as="geometry">
            <mxPoint x="315" y="200" as="sourcePoint" />
            <mxPoint x="555" y="200" as="targetPoint" />
            <mxPoint y="1" as="offset" />
            <Array as="points">
              <mxPoint x="430" y="200" />
            </Array>
          </mxGeometry>
        </mxCell>
        <mxCell id="H8AewnWsdawKGz8qPp7k-49" value="registrarUser()" style="html=1;verticalAlign=bottom;endArrow=block;curved=0;rounded=0;" edge="1" parent="1" source="H8AewnWsdawKGz8qPp7k-40" target="H8AewnWsdawKGz8qPp7k-50">
          <mxGeometry width="80" relative="1" as="geometry">
            <mxPoint x="320" y="310" as="sourcePoint" />
            <mxPoint x="470" y="310" as="targetPoint" />
            <Array as="points">
              <mxPoint x="400" y="310" />
            </Array>
          </mxGeometry>
        </mxCell>
        <mxCell id="H8AewnWsdawKGz8qPp7k-51" value="crearUser()" style="html=1;verticalAlign=bottom;endArrow=block;curved=0;rounded=0;entryX=0;entryY=0;entryDx=0;entryDy=5;entryPerimeter=0;" edge="1" parent="1" source="H8AewnWsdawKGz8qPp7k-50" target="H8AewnWsdawKGz8qPp7k-54">
          <mxGeometry width="80" relative="1" as="geometry">
            <mxPoint x="510" y="320" as="sourcePoint" />
            <mxPoint x="600" y="320" as="targetPoint" />
          </mxGeometry>
        </mxCell>
        <mxCell id="H8AewnWsdawKGz8qPp7k-58" value="crearPhones()" style="html=1;verticalAlign=bottom;endArrow=block;curved=0;rounded=0;" edge="1" parent="1" source="H8AewnWsdawKGz8qPp7k-54" target="H8AewnWsdawKGz8qPp7k-55">
          <mxGeometry width="80" relative="1" as="geometry">
            <mxPoint x="615" y="330" as="sourcePoint" />
            <mxPoint x="705" y="330" as="targetPoint" />
            <Array as="points">
              <mxPoint x="630" y="330" />
            </Array>
          </mxGeometry>
        </mxCell>
        <mxCell id="H8AewnWsdawKGz8qPp7k-62" value="mostrarDatosUser" style="html=1;verticalAlign=bottom;endArrow=open;dashed=1;endSize=8;curved=0;rounded=0;" edge="1" parent="1">
          <mxGeometry relative="1" as="geometry">
            <mxPoint x="305" y="440" as="sourcePoint" />
            <mxPoint x="180" y="440" as="targetPoint" />
          </mxGeometry>
        </mxCell>
        <mxCell id="H8AewnWsdawKGz8qPp7k-64" value="" style="shape=umlLifeline;perimeter=lifelinePerimeter;whiteSpace=wrap;html=1;container=1;dropTarget=0;collapsible=0;recursiveResize=0;outlineConnect=0;portConstraint=eastwest;newEdgeStyle={&quot;curved&quot;:0,&quot;rounded&quot;:0};participant=umlEntity;" vertex="1" parent="1">
          <mxGeometry x="700" y="340" width="40" height="140" as="geometry" />
        </mxCell>
        <mxCell id="H8AewnWsdawKGz8qPp7k-65" value="" style="shape=umlLifeline;perimeter=lifelinePerimeter;whiteSpace=wrap;html=1;container=1;dropTarget=0;collapsible=0;recursiveResize=0;outlineConnect=0;portConstraint=eastwest;newEdgeStyle={&quot;curved&quot;:0,&quot;rounded&quot;:0};participant=umlEntity;" vertex="1" parent="1">
          <mxGeometry x="785" y="368" width="40" height="112" as="geometry" />
        </mxCell>
        <mxCell id="H8AewnWsdawKGz8qPp7k-66" value="nuevoUser" style="text;strokeColor=none;align=center;fillColor=none;html=1;verticalAlign=middle;whiteSpace=wrap;rounded=0;" vertex="1" parent="1">
          <mxGeometry x="690" y="310" width="60" height="30" as="geometry" />
        </mxCell>
        <mxCell id="H8AewnWsdawKGz8qPp7k-67" value="nuevoPhone" style="text;html=1;align=center;verticalAlign=middle;resizable=0;points=[];autosize=1;strokeColor=none;fillColor=none;" vertex="1" parent="1">
          <mxGeometry x="760" y="310" width="90" height="30" as="geometry" />
        </mxCell>
        <mxCell id="H8AewnWsdawKGz8qPp7k-74" value="&lt;font style=&quot;font-size: 11px;&quot;&gt;nuevoPhone&lt;/font&gt;" style="text;html=1;align=center;verticalAlign=middle;resizable=0;points=[];autosize=1;strokeColor=none;fillColor=none;" vertex="1" parent="1">
          <mxGeometry x="720" y="409" width="90" height="30" as="geometry" />
        </mxCell>
        <mxCell id="H8AewnWsdawKGz8qPp7k-76" value="nuevoUser" style="text;html=1;align=center;verticalAlign=middle;resizable=0;points=[];autosize=1;strokeColor=none;fillColor=none;fontSize=11;" vertex="1" parent="1">
          <mxGeometry x="480" y="368" width="80" height="30" as="geometry" />
        </mxCell>
        <mxCell id="H8AewnWsdawKGz8qPp7k-77" value="getEmail()" style="html=1;verticalAlign=bottom;endArrow=block;curved=0;rounded=0;" edge="1" parent="1" target="H8AewnWsdawKGz8qPp7k-45">
          <mxGeometry x="-0.3684" width="80" relative="1" as="geometry">
            <mxPoint x="570" y="200" as="sourcePoint" />
            <mxPoint x="560" y="220" as="targetPoint" />
            <Array as="points">
              <mxPoint x="600" y="200" />
              <mxPoint x="600" y="230" />
            </Array>
            <mxPoint as="offset" />
          </mxGeometry>
        </mxCell>
        <mxCell id="H8AewnWsdawKGz8qPp7k-80" value="" style="endArrow=block;dashed=1;endFill=0;endSize=12;html=1;rounded=0;" edge="1" parent="1" target="H8AewnWsdawKGz8qPp7k-64">
          <mxGeometry width="160" relative="1" as="geometry">
            <mxPoint x="320" y="398" as="sourcePoint" />
            <mxPoint x="480" y="398" as="targetPoint" />
          </mxGeometry>
        </mxCell>
        <mxCell id="H8AewnWsdawKGz8qPp7k-81" value="" style="endArrow=block;dashed=1;endFill=0;endSize=12;html=1;rounded=0;" edge="1" parent="1" target="H8AewnWsdawKGz8qPp7k-65">
          <mxGeometry width="160" relative="1" as="geometry">
            <mxPoint x="720" y="440" as="sourcePoint" />
            <mxPoint x="800" y="440" as="targetPoint" />
          </mxGeometry>
        </mxCell>
      </root>
    </mxGraphModel>
  </diagram>
</mxfile>
